<?xml version="1.0" encoding="utf-8"?>
<!-- Generator: Adobe Illustrator 15.0.2, SVG Export Plug-In . SVG Version: 6.00 Build 0)  -->
<!DOCTYPE svg PUBLIC "-//W3C//DTD SVG 1.1//EN" "http://www.w3.org/Graphics/SVG/1.1/DTD/svg11.dtd">
<svg version="1.1" id="Ebene_1" xmlns="http://www.w3.org/2000/svg" xmlns:xlink="http://www.w3.org/1999/xlink" x="0px" y="0px"
	 width="566.37px" height="211.821px" viewBox="0 0 566.37 211.821" enable-background="new 0 0 566.37 211.821"
	 xml:space="preserve">
<g>
	<polygon fill="#43494B" points="271.839,92.749 285.304,92.749 252.031,141.453 237.991,141.453 226.324,92.749 241.235,92.749 
		248.836,128 	"/>
	<g>
		<path fill="#43494B" d="M465.785,133.022c2.024,0,2.762-0.555,3.236-2.382l6.991-26.523c0.588-2.195,0.087-2.617-1.767-2.617
			h-31.601c-2.047,0-2.757,0.423-3.372,2.803l-6.991,26.504c-0.478,1.793-0.146,2.215,1.9,2.215H465.785z M483.885,132.039
			c-2.408,9.164-5.157,9.414-16.933,9.414h-40.685c-7.209,0-10.651-3.059-8.652-10.701l7.79-29.502
			c1.473-5.557,4.237-8.501,12.663-8.501h45.668c6.87,0,9.585,3.316,7.536,11.134L483.885,132.039z"/>
		<path fill="#43494B" d="M329.854,133.022c2.026,0,2.765-0.554,3.237-2.382l6.991-26.523c0.588-2.195,0.087-2.616-1.766-2.616
			h-31.618c-2.048,0-2.757,0.421-3.373,2.802l-6.99,26.504c-0.478,1.792-0.147,2.214,1.897,2.214H329.854z M354.247,108.111
			l-6.292,23.928c-2.41,9.164-5.158,9.414-16.933,9.414h-40.703c-7.209,0-10.65-3.059-8.652-10.7l7.821-29.67
			c1.341-5.053,4.837-8.334,12.455-8.334h45.827c7.334,0,9.36,4.348,7.776,10.393L354.247,108.111z"/>
		<path fill="#43494B" d="M377.073,131.691l10.352-38.943h-15.619l-11.039,41.758c-0.994,3.559-0.294,7.047,6.066,6.946h43.362
			l2.27-8.557l-34.453,0.057C376.951,132.953,376.863,132.479,377.073,131.691"/>
		<path fill="#43494B" d="M125.956,103.435l-6.972,26.539c-0.61,2.351-0.866,3.081-3.138,3.081H84.001
			c-1.705,0-2.06-0.473-1.546-2.326l6.89-26.145c0.604-2.42,1.092-3.082,3.358-3.082h31.796
			C126.025,101.502,126.338,102.036,125.956,103.435 M134.601,70.976l-5.774,21.779H88.492c-8.098,0-11.822,2.66-13.28,8.145
			l-7.865,29.832c-1.755,6.712,0.103,10.72,8.469,10.72h55.367l18.571-70.476H134.601z"/>
		<path fill="#43494B" d="M204.545,104.092l-3.211,12.218h-36.49l3.094-11.732c0.617-2.38,1.412-3.077,3.459-3.077h31.286
			C204.743,101.502,205.049,102.148,204.545,104.092 M220.082,103.001c1.542-5.962-0.285-10.254-7.713-10.254h-44.88
			c-7.565,0-11.999,2.341-13.587,8.348l-7.824,29.635c-1.609,6.168-0.888,10.721,8.648,10.721h55.088l2.202-8.428h-49.202
			c-1.78,0-2.206-0.64-1.639-2.746l1.877-7.117l51.721,0.014L220.082,103.001z"/>
	</g>
</g>
</svg>
