<svg xmlns="http://www.w3.org/2000/svg" xmlns:xlink="http://www.w3.org/1999/xlink" width="48" height="400" viewBox="0 0 48 400" 
	class="header_cornenrs" 
	style="-moz-transform: scaleX(-1);
        -o-transform: scaleX(-1);
        -webkit-transform: scaleX(-1);
        transform: scaleX(-1);
        filter: FlipH;
        -ms-filter: 'FlipH';">

	<svg width="46" height="79" viewBox="0 0 46 79" id="header-curve-shadow" y="0">
		<defs><filter x="-50%" y="-50%" width="200%" height="200%" filterUnits="objectBoundingBox" id="dha">
			<feOffset in="SourceAlpha" result="shadowOffsetOuter1"/><feGaussianBlur stdDeviation="1.5" in="shadowOffsetOuter1" result="shadowBlurOuter1"/><feColorMatrix values="0 0 0 0 0 0 0 0 0 0 0 0 0 0 0 0 0 0 0.35 0" in="shadowBlurOuter1" result="shadowMatrixOuter1"/><feMerge><feMergeNode in="shadowMatrixOuter1"/><feMergeNode in="SourceGraphic"/></feMerge></filter>
		</defs>
		<path d="M28 0H0v56h1.2s5.1 0 6.5-4.9l12-42.9C20.9 3 25.5 2.1 27 2h1V0z" filter="url(#dha)" fill="#fff"/>
	</svg>
	<svg width="48" height="76" viewBox="0 0 48 76" id="header-curve" y="100">
		<path d="M28 0H0v56h1.2s5.1 0 6.5-4.9l12-42.9C20.9 3 25.5 2.1 27 2h1V0z" fill="#fff"/>
	</svg>

	<svg width="41.3" height="60" viewBox="0 0 41.3 60" id="header-curve-tablet" y="200">
		<path d="M21.3 0H0v40h1.9s3.6 0 4.6-3.4l8.4-30.1c.8-3.7 4-4.3 5.1-4.4h1.3V0z" fill="#fff"/>
	</svg>
	<svg width="41" height="64" viewBox="0 0 41 64" id="header-curve-tablet-shadow" y="300">
		<defs>
			<filter x="-50%" y="-50%" width="200%" height="200%" filterUnits="objectBoundingBox" id="dia"><feOffset dy="2" in="SourceAlpha" result="shadowOffsetOuter1"/><feGaussianBlur stdDeviation="2" in="shadowOffsetOuter1" result="shadowBlurOuter1"/><feColorMatrix values="0 0 0 0 0 0 0 0 0 0 0 0 0 0 0 0 0 0 0.35 0" in="shadowBlurOuter1" result="shadowMatrixOuter1"/><feMerge><feMergeNode in="shadowMatrixOuter1"/><feMergeNode in="SourceGraphic"/></feMerge>
			</filter>
		</defs>
		<path d="M21.3 0H0v40h1.9s3.6 0 4.6-3.4l8.4-30.1c.8-3.7 4-4.3 5.1-4.4h1.3V0z" filter="url(#dia)" fill="#fff"/>
	</svg>
</svg>